<svg width="54" height="54" viewBox="0 0 54 54" fill="none" xmlns="http://www.w3.org/2000/svg">
<g id="fluent-mdl2:teamwork" clip-path="url(#clip0_264_242)">
<path id="Vector" d="M43.875 28.6875C45.0352 28.6875 46.125 28.9072 47.1445 29.3467C48.1641 29.7861 49.0605 30.3838 49.834 31.1396C50.6074 31.8955 51.2139 32.792 51.6533 33.8291C52.0928 34.8662 52.3125 35.9648 52.3125 37.125C52.3125 38.0391 52.1719 38.9268 51.8906 39.7881C51.6094 40.6494 51.1875 41.4492 50.625 42.1875V53.3672L43.875 49.9922L37.125 53.3672V42.1875C36.5801 41.4492 36.167 40.6494 35.8857 39.7881C35.6045 38.9268 35.4551 38.0391 35.4375 37.125C35.4375 35.9648 35.6572 34.875 36.0967 33.8555C36.5361 32.8359 37.1338 31.9395 37.8896 31.166C38.6455 30.3926 39.542 29.7861 40.5791 29.3467C41.6162 28.9072 42.7148 28.6875 43.875 28.6875ZM43.875 32.0625C43.1719 32.0625 42.5127 32.1943 41.8975 32.458C41.2822 32.7217 40.7461 33.082 40.2891 33.5391C39.832 33.9961 39.4717 34.5322 39.208 35.1475C38.9443 35.7627 38.8125 36.4219 38.8125 37.125C38.8125 37.8281 38.9443 38.4873 39.208 39.1025C39.4717 39.7178 39.832 40.2539 40.2891 40.7109C40.7461 41.168 41.2822 41.5283 41.8975 41.792C42.5127 42.0557 43.1719 42.1875 43.875 42.1875C44.5781 42.1875 45.2373 42.0557 45.8525 41.792C46.4678 41.5283 47.0039 41.168 47.4609 40.7109C47.918 40.2539 48.2783 39.7178 48.542 39.1025C48.8057 38.4873 48.9375 37.8281 48.9375 37.125C48.9375 36.4219 48.8057 35.7627 48.542 35.1475C48.2783 34.5322 47.918 33.9961 47.4609 33.5391C47.0039 33.082 46.4678 32.7217 45.8525 32.458C45.2373 32.1943 44.5781 32.0625 43.875 32.0625ZM47.25 47.8828V44.8506C46.1953 45.3252 45.0703 45.5625 43.875 45.5625C42.6797 45.5625 41.5547 45.3252 40.5 44.8506V47.8828L43.875 46.1953L47.25 47.8828ZM43.875 13.5C42.9434 13.5 42.0732 13.6758 41.2646 14.0273C40.4561 14.3789 39.7354 14.8623 39.1025 15.4775C38.4697 16.0928 37.9863 16.8047 37.6523 17.6133C37.3184 18.4219 37.1426 19.3008 37.125 20.25C37.125 21.8672 36.7646 23.3877 36.0439 24.8115C35.3232 26.2354 34.3037 27.4395 32.9854 28.4238C33.3193 28.582 33.6357 28.7578 33.9346 28.9512C34.2334 29.1445 34.541 29.3467 34.8574 29.5576L32.8799 32.2998C32.0186 31.6846 31.0869 31.21 30.085 30.876C29.083 30.542 28.0547 30.375 27 30.375C25.5938 30.375 24.2842 30.6387 23.0713 31.166C21.8584 31.6934 20.7861 32.4141 19.8545 33.3281C18.9229 34.2422 18.1934 35.3232 17.666 36.5713C17.1387 37.8193 16.875 39.1289 16.875 40.5H13.5C13.5 39.2168 13.6758 37.9775 14.0273 36.7822C14.3789 35.5869 14.8799 34.4619 15.5303 33.4072C16.1807 32.3525 16.9629 31.4033 17.877 30.5596C18.791 29.7158 19.8281 28.9951 20.9883 28.3975C19.6875 27.4307 18.6768 26.2354 17.9561 24.8115C17.2354 23.3877 16.875 21.8672 16.875 20.25C16.875 19.3184 16.6992 18.4482 16.3477 17.6396C15.9961 16.8311 15.5127 16.1104 14.8975 15.4775C14.2822 14.8447 13.5703 14.3613 12.7617 14.0273C11.9531 13.6934 11.0742 13.5176 10.125 13.5C9.19336 13.5 8.32324 13.6758 7.51465 14.0273C6.70605 14.3789 5.98535 14.8623 5.35254 15.4775C4.71973 16.0928 4.23633 16.8047 3.90234 17.6133C3.56836 18.4219 3.39258 19.3008 3.375 20.25H0C0 19.3359 0.123047 18.4482 0.369141 17.5869C0.615234 16.7256 0.958008 15.9082 1.39746 15.1348C1.83691 14.3613 2.38184 13.6582 3.03223 13.0254C3.68262 12.3926 4.41211 11.8477 5.2207 11.3906C4.64062 10.7754 4.19238 10.0635 3.87598 9.25488C3.55957 8.44629 3.39258 7.61133 3.375 6.75C3.375 5.81836 3.55078 4.94824 3.90234 4.13965C4.25391 3.33105 4.7373 2.61035 5.35254 1.97754C5.96777 1.34473 6.67969 0.861328 7.48828 0.527344C8.29688 0.193359 9.17578 0.0175781 10.125 0C11.0566 0 11.9268 0.175781 12.7354 0.527344C13.5439 0.878906 14.2646 1.3623 14.8975 1.97754C15.5303 2.59277 16.0137 3.30469 16.3477 4.11328C16.6816 4.92188 16.8574 5.80078 16.875 6.75C16.875 7.61133 16.7168 8.44629 16.4004 9.25488C16.084 10.0635 15.627 10.7754 15.0293 11.3906C16.4707 12.1816 17.6484 13.2715 18.5625 14.6602C19.0371 13.957 19.582 13.3242 20.1973 12.7617C20.8125 12.1992 21.4805 11.7246 22.2012 11.3379C22.9219 10.9512 23.6865 10.6523 24.4951 10.4414C25.3037 10.2305 26.1387 10.125 27 10.125C27.8438 10.125 28.6699 10.2305 29.4785 10.4414C30.2871 10.6523 31.0518 10.9512 31.7725 11.3379C32.4932 11.7246 33.1699 12.1992 33.8027 12.7617C34.4355 13.3242 34.9805 13.957 35.4375 14.6602C36.3516 13.2715 37.5293 12.1816 38.9707 11.3906C38.3906 10.7754 37.9424 10.0635 37.626 9.25488C37.3096 8.44629 37.1426 7.61133 37.125 6.75C37.125 5.81836 37.3008 4.94824 37.6523 4.13965C38.0039 3.33105 38.4873 2.61035 39.1025 1.97754C39.7178 1.34473 40.4297 0.861328 41.2383 0.527344C42.0469 0.193359 42.9258 0.0175781 43.875 0C44.8066 0 45.6768 0.175781 46.4854 0.527344C47.2939 0.878906 48.0146 1.3623 48.6475 1.97754C49.2803 2.59277 49.7637 3.30469 50.0977 4.11328C50.4316 4.92188 50.6074 5.80078 50.625 6.75C50.625 7.61133 50.4668 8.44629 50.1504 9.25488C49.834 10.0635 49.377 10.7754 48.7793 11.3906C49.5879 11.8477 50.3086 12.3926 50.9414 13.0254C51.5742 13.6582 52.1191 14.3525 52.5762 15.1084C53.0332 15.8643 53.3848 16.6816 53.6309 17.5605C53.877 18.4395 54 19.3359 54 20.25H50.625C50.625 19.3184 50.4492 18.4482 50.0977 17.6396C49.7461 16.8311 49.2627 16.1104 48.6475 15.4775C48.0322 14.8447 47.3203 14.3613 46.5117 14.0273C45.7031 13.6934 44.8242 13.5176 43.875 13.5ZM40.5 6.75C40.5 7.22461 40.5879 7.66406 40.7637 8.06836C40.9395 8.47266 41.1768 8.82422 41.4756 9.12305C41.7744 9.42188 42.1348 9.66797 42.5566 9.86133C42.9785 10.0547 43.418 10.1426 43.875 10.125C44.3496 10.125 44.7891 10.0371 45.1934 9.86133C45.5977 9.68555 45.9492 9.44824 46.248 9.14941C46.5469 8.85059 46.793 8.49023 46.9863 8.06836C47.1797 7.64648 47.2676 7.20703 47.25 6.75C47.25 6.27539 47.1621 5.83594 46.9863 5.43164C46.8105 5.02734 46.5732 4.67578 46.2744 4.37695C45.9756 4.07812 45.6152 3.83203 45.1934 3.63867C44.7715 3.44531 44.332 3.35742 43.875 3.375C43.4004 3.375 42.9609 3.46289 42.5566 3.63867C42.1523 3.81445 41.8008 4.05176 41.502 4.35059C41.2031 4.64941 40.957 5.00977 40.7637 5.43164C40.5703 5.85352 40.4824 6.29297 40.5 6.75ZM6.75 6.75C6.75 7.22461 6.83789 7.66406 7.01367 8.06836C7.18945 8.47266 7.42676 8.82422 7.72559 9.12305C8.02441 9.42188 8.38477 9.66797 8.80664 9.86133C9.22852 10.0547 9.66797 10.1426 10.125 10.125C10.5996 10.125 11.0391 10.0371 11.4434 9.86133C11.8477 9.68555 12.1992 9.44824 12.498 9.14941C12.7969 8.85059 13.043 8.49023 13.2363 8.06836C13.4297 7.64648 13.5176 7.20703 13.5 6.75C13.5 6.27539 13.4121 5.83594 13.2363 5.43164C13.0605 5.02734 12.8232 4.67578 12.5244 4.37695C12.2256 4.07812 11.8652 3.83203 11.4434 3.63867C11.0215 3.44531 10.582 3.35742 10.125 3.375C9.65039 3.375 9.21094 3.46289 8.80664 3.63867C8.40234 3.81445 8.05078 4.05176 7.75195 4.35059C7.45312 4.64941 7.20703 5.00977 7.01367 5.43164C6.82031 5.85352 6.73242 6.29297 6.75 6.75ZM20.25 20.25C20.25 21.1816 20.4258 22.0518 20.7773 22.8604C21.1289 23.6689 21.6123 24.3896 22.2275 25.0225C22.8428 25.6553 23.5547 26.1387 24.3633 26.4727C25.1719 26.8066 26.0508 26.9824 27 27C27.9316 27 28.8018 26.8242 29.6104 26.4727C30.4189 26.1211 31.1396 25.6377 31.7725 25.0225C32.4053 24.4072 32.8887 23.6953 33.2227 22.8867C33.5566 22.0781 33.7324 21.1992 33.75 20.25C33.75 19.3184 33.5742 18.4482 33.2227 17.6396C32.8711 16.8311 32.3877 16.1104 31.7725 15.4775C31.1572 14.8447 30.4453 14.3613 29.6367 14.0273C28.8281 13.6934 27.9492 13.5176 27 13.5C26.0684 13.5 25.1982 13.6758 24.3896 14.0273C23.5811 14.3789 22.8604 14.8623 22.2275 15.4775C21.5947 16.0928 21.1113 16.8047 20.7773 17.6133C20.4434 18.4219 20.2676 19.3008 20.25 20.25Z" fill="#2CBD2F"/>
</g>
<defs>
<clipPath id="clip0_264_242">
<rect width="54" height="54" fill="white"/>
</clipPath>
</defs>
</svg>
