<svg width="54" height="44" viewBox="0 0 54 44" fill="none" xmlns="http://www.w3.org/2000/svg">
<g id="fa6-solid:handshake">
<path id="Vector" d="M27.2869 7.18865L19.1194 13.8037C17.7609 14.9005 17.4994 16.8749 18.5288 18.284C19.6172 19.7858 21.735 20.0812 23.1947 18.9421L31.5731 12.4283C32.1637 11.9727 33.0075 12.074 33.4716 12.6646C33.9356 13.2552 33.8259 14.099 33.2353 14.563L31.4719 15.9299L43.2 26.7299V10.7999H43.1409L42.8119 10.589L36.6862 6.66553C35.3953 5.83865 33.885 5.3999 32.3494 5.3999C30.51 5.3999 28.7213 6.03271 27.2869 7.18865ZM29.2106 17.6849L24.8484 21.0768C22.1906 23.1524 18.3347 22.6124 16.3434 19.8787C14.4703 17.3052 14.9428 13.7108 17.415 11.7112L24.435 6.03271C23.4563 5.61928 22.4016 5.40834 21.33 5.40834C19.7438 5.3999 18.1997 5.8724 16.875 6.7499L10.8 10.7999V29.6999H13.1794L20.8913 36.7368C22.545 38.2471 25.1016 38.129 26.6119 36.4752C27.0759 35.9605 27.3881 35.3615 27.5484 34.7371L28.9828 36.0533C30.6281 37.5637 33.1931 37.454 34.7034 35.8087C35.0831 35.3952 35.3616 34.9143 35.5388 34.4165C37.1756 35.5133 39.4031 35.2855 40.7784 33.7837C42.2887 32.1383 42.1791 29.5733 40.5337 28.063L29.2106 17.6849ZM1.35 10.7999C0.6075 10.7999 0 11.4074 0 12.1499V29.6999C0 31.1933 1.20656 32.3999 2.7 32.3999H5.4C6.89344 32.3999 8.1 31.1933 8.1 29.6999V10.7999H1.35ZM4.05 26.9999C4.40804 26.9999 4.75142 27.1421 5.00459 27.3953C5.25777 27.6485 5.4 27.9919 5.4 28.3499C5.4 28.7079 5.25777 29.0513 5.00459 29.3045C4.75142 29.5577 4.40804 29.6999 4.05 29.6999C3.69196 29.6999 3.34858 29.5577 3.09541 29.3045C2.84223 29.0513 2.7 28.7079 2.7 28.3499C2.7 27.9919 2.84223 27.6485 3.09541 27.3953C3.34858 27.1421 3.69196 26.9999 4.05 26.9999ZM45.9 10.7999V29.6999C45.9 31.1933 47.1066 32.3999 48.6 32.3999H51.3C52.7934 32.3999 54 31.1933 54 29.6999V12.1499C54 11.4074 53.3925 10.7999 52.65 10.7999H45.9ZM48.6 28.3499C48.6 27.9919 48.7422 27.6485 48.9954 27.3953C49.2486 27.1421 49.592 26.9999 49.95 26.9999C50.308 26.9999 50.6514 27.1421 50.9046 27.3953C51.1578 27.6485 51.3 27.9919 51.3 28.3499C51.3 28.7079 51.1578 29.0513 50.9046 29.3045C50.6514 29.5577 50.308 29.6999 49.95 29.6999C49.592 29.6999 49.2486 29.5577 48.9954 29.3045C48.7422 29.0513 48.6 28.7079 48.6 28.3499Z" fill="#2CBD2F"/>
</g>
</svg>
