<svg width="54" height="54" viewBox="0 0 54 54" fill="none" xmlns="http://www.w3.org/2000/svg">
<g id="mingcute:target-fill" clip-path="url(#clip0_264_248)">
<g id="Group">
<path id="Vector" d="M27 4.5C29.016 4.5 30.969 4.7655 32.8275 5.26275L28.044 10.044C27.6811 10.4083 27.361 10.813 27.09 11.25H27C23.8849 11.25 20.8398 12.1737 18.2498 13.9044C15.6597 15.635 13.641 18.0948 12.4489 20.9727C11.2568 23.8507 10.9449 27.0175 11.5526 30.0727C12.1603 33.1279 13.6604 35.9343 15.8631 38.1369C18.0657 40.3396 20.8721 41.8397 23.9273 42.4474C26.9825 43.0551 30.1493 42.7432 33.0273 41.5511C35.9052 40.359 38.365 38.3403 40.0956 35.7502C41.8263 33.1602 42.75 30.1151 42.75 27V26.91C43.182 26.64 43.587 26.3228 43.9538 25.9538L48.7372 21.1725C49.2345 23.031 49.5 24.984 49.5 27C49.5 39.4268 39.4268 49.5 27 49.5C14.5733 49.5 4.5 39.4268 4.5 27C4.5 14.5733 14.5733 4.5 27 4.5ZM26.0685 15.7882C26.0685 17.703 25.974 19.6448 26.0775 21.5573L24.8625 22.7723C24.4446 23.1902 24.113 23.6864 23.8868 24.2325C23.6606 24.7785 23.5442 25.3638 23.5442 25.9549C23.5442 26.5459 23.6606 27.1312 23.8868 27.6773C24.113 28.2234 24.4446 28.7196 24.8625 29.1375C25.2804 29.5554 25.7766 29.887 26.3227 30.1132C26.8688 30.3394 27.4541 30.4558 28.0451 30.4558C28.6362 30.4558 29.2215 30.3394 29.7675 30.1132C30.3136 29.887 30.8098 29.5554 31.2277 29.1375L32.4427 27.9225C34.3552 28.026 36.2948 27.9315 38.2118 27.9315C38.034 30.0698 37.2485 32.1126 35.9479 33.8191C34.6472 35.5256 32.8857 36.8245 30.871 37.5628C28.8564 38.301 26.6727 38.4477 24.5774 37.9855C22.4821 37.5234 20.5627 36.4717 19.0455 34.9545C17.5283 33.4373 16.4766 31.5179 16.0145 29.4226C15.5523 27.3273 15.699 25.1436 16.4372 23.129C17.1755 21.1143 18.4744 19.3528 20.1809 18.0521C21.8874 16.7515 23.9302 15.966 26.0685 15.7882ZM41.634 4.78575C42.0447 4.95603 42.3957 5.24416 42.6428 5.61377C42.8899 5.98338 43.0219 6.41791 43.0223 6.8625V10.98H47.1375C47.5824 10.9801 48.0174 11.1121 48.3873 11.3593C48.7572 11.6066 49.0455 11.958 49.2158 12.369C49.386 12.7801 49.4306 13.2324 49.3438 13.6688C49.257 14.1052 49.0428 14.5061 48.7282 14.8207L40.77 22.77C40.3481 23.192 39.7759 23.4291 39.1792 23.4293H33.75L29.6347 27.5445C29.2126 27.9664 28.6401 28.2033 28.0432 28.2031C27.4463 28.2029 26.874 27.9656 26.4521 27.5434C26.0302 27.1212 25.7933 26.5487 25.7935 25.9518C25.7938 25.355 26.0311 24.7826 26.4533 24.3607L30.5685 20.25V14.8185C30.5683 14.5227 30.6264 14.2297 30.7395 13.9564C30.8526 13.683 31.0185 13.4347 31.2277 13.2255L39.1815 5.27175C39.4962 4.9569 39.8971 4.74246 40.3337 4.65555C40.7702 4.56863 41.2228 4.61316 41.634 4.7835V4.78575Z" fill="#2CBD2F"/>
</g>
</g>
<defs>
<clipPath id="clip0_264_248">
<rect width="54" height="54" fill="white"/>
</clipPath>
</defs>
</svg>
