<svg width="54" height="54" viewBox="0 0 54 54" fill="none" xmlns="http://www.w3.org/2000/svg">
<g id="carbon:badge">
<path id="Vector" d="M38.8125 3.375L41.5007 8.4375L47.25 9.13613L43.0312 12.9381L43.875 18.5625L38.8125 15.3984L33.75 18.5625L34.5938 12.9381L30.375 9.13613L36.2812 8.4375L38.8125 3.375Z" fill="#2CBD2F"/>
<path id="Vector_2" d="M38.3349 22.3577L35.0645 21.5173C34.4783 23.7756 33.2359 25.8095 31.4943 27.362C29.7526 28.9145 27.59 29.916 25.2794 30.2399C22.9689 30.5639 20.6142 30.1957 18.5128 29.182C16.4114 28.1683 14.6576 26.5545 13.473 24.5445C12.2883 22.5346 11.726 20.2185 11.857 17.8891C11.988 15.5596 12.8065 13.3213 14.2091 11.4568C15.6116 9.59234 17.5353 8.18539 19.7372 7.41372C21.939 6.64205 24.3201 6.54028 26.5797 7.12127L27.4218 3.85258C24.1278 2.99576 20.6413 3.27155 17.5229 4.6356C14.4046 5.99966 11.8355 8.37273 10.2288 11.3733C8.62211 14.3738 8.07111 17.8275 8.6644 21.1791C9.25769 24.5306 10.9608 27.5852 13.4999 29.8519V50.625L23.6249 43.875L33.7499 50.625V29.8823C35.9911 27.8847 37.5872 25.2653 38.3349 22.3577ZM30.3749 44.3188L23.6249 39.8183L16.8749 44.3188V32.1469C18.9692 33.199 21.2801 33.7477 23.6237 33.7495C25.9674 33.7512 28.2791 33.2059 30.3749 32.157V44.3188Z" fill="#2CBD2F"/>
</g>
</svg>
