<svg width="54" height="54" viewBox="0 0 54 54" fill="none" xmlns="http://www.w3.org/2000/svg">
<g id="mdi:rocket">
<path id="Vector" d="M45 49.5L36.315 46.0125C37.89 42.57 39.015 39.015 39.7125 35.3925L45 49.5ZM17.685 46.0125L9 49.5L14.2875 35.3925C14.985 39.015 16.11 42.57 17.685 46.0125ZM27 4.5C27 4.5 38.25 9 38.25 27C38.25 33.975 36.5625 39.9375 34.4925 44.6175C34.1327 45.4063 33.5527 46.0744 32.8223 46.5414C32.0918 47.0084 31.242 47.2545 30.375 47.25H23.625C22.758 47.2545 21.9082 47.0084 21.1777 46.5414C20.4473 46.0744 19.8673 45.4063 19.5075 44.6175C17.46 39.9375 15.75 33.975 15.75 27C15.75 9 27 4.5 27 4.5ZM27 27C29.475 27 31.5 24.975 31.5 22.5C31.5 20.025 29.475 18 27 18C24.525 18 22.5 20.025 22.5 22.5C22.5 24.975 24.525 27 27 27Z" fill="#2CBD2F"/>
</g>
</svg>
