<svg width="65" height="58" viewBox="0 0 65 58" fill="none" xmlns="http://www.w3.org/2000/svg">
<mask id="mask0_545_3259" style="mask-type:luminance" maskUnits="userSpaceOnUse" x="0" y="0" width="65" height="58">
<path d="M65 0H0V57.4419H65V0Z" fill="white"/>
</mask>
<g mask="url(#mask0_545_3259)">
<path d="M49.5739 13.8268C50.124 13.8268 50.7799 13.7908 51.5417 13.7188C52.3034 13.6468 53.1074 13.6108 53.9538 13.6108C54.8001 13.6108 55.6359 13.6468 56.4611 13.7188C57.2863 13.7908 58.0374 14.0068 58.7145 14.3669C59.3916 14.727 59.9206 15.2311 60.3014 15.8792C60.6823 16.5273 60.8939 17.3795 60.9362 18.4357V50.6983C60.9362 51.3464 60.8304 51.9465 60.6188 52.4986C60.4072 53.0507 60.1216 53.5308 59.7619 53.9389C59.4022 54.347 58.9684 54.6831 58.4606 54.9471C57.9528 55.2112 57.4238 55.3312 56.8737 55.3072H4.06123C3.48994 55.3072 2.96098 55.1872 2.47433 54.9471C1.98768 54.7071 1.5645 54.383 1.2048 53.9749C0.845092 53.5668 0.548869 53.0747 0.316121 52.4986C0.083374 51.9225 -0.0224202 51.3224 -0.00126139 50.6983V18.4357C-0.00126139 17.7876 0.104533 17.1875 0.316121 16.6354C0.52771 16.0833 0.813354 15.6032 1.17306 15.1951C1.53276 14.787 1.96652 14.4509 2.47433 14.1869C2.98214 13.9228 3.5111 13.8028 4.06123 13.8268H31.6735L41.9884 2.12443C42.5809 1.45229 43.258 0.93619 44.0197 0.576117C44.7814 0.216044 45.596 0.0240049 46.4635 0C47.3311 0 48.1457 0.192039 48.9074 0.576117C49.6691 0.960194 50.3356 1.4763 50.9069 2.12443C51.4782 2.77256 51.9331 3.52871 52.2716 4.39289C52.6102 5.25706 52.7795 6.19325 52.7795 7.20146C52.7795 7.99362 52.7054 8.67776 52.5573 9.25387C52.4092 9.82999 52.187 10.3821 51.8908 10.9102C51.5946 11.4383 51.256 11.9184 50.8752 12.3505C50.4943 12.7826 50.0605 13.2747 49.5739 13.8268ZM46.4635 4.60893C45.8499 4.60893 45.321 4.86098 44.8766 5.36509L18.8512 34.8911L17.7721 39.7521L22.0568 38.5278L43.6706 14.0428C43.6283 13.9948 43.6283 13.9348 43.6706 13.8628C43.7129 13.7908 43.7658 13.7788 43.8293 13.8268C44.0832 13.5387 44.4852 13.1307 45.0353 12.6026C45.5855 12.0744 46.1356 11.5103 46.6857 10.9102C47.2358 10.3101 47.7119 9.67396 48.1139 9.00182C48.516 8.32969 48.7275 7.72957 48.7487 7.20146C48.7487 6.48131 48.5265 5.86919 48.0822 5.36509C47.6379 4.86098 47.0983 4.60893 46.4635 4.60893ZM56.8737 18.4357H45.5114L24.1515 42.7047L12.1862 46.0893L15.1696 32.5146L27.611 18.4357H4.06123V50.6983H56.8737V18.4357Z" fill="#2CBD2F"/>
</g>
</svg>
