<svg width="65" height="65" viewBox="0 0 65 65" fill="none" xmlns="http://www.w3.org/2000/svg">
<g clip-path="url(#clip0_545_3265)">
<mask id="mask0_545_3265" style="mask-type:luminance" maskUnits="userSpaceOnUse" x="0" y="0" width="65" height="65">
<path d="M65 0H0V65H65V0Z" fill="white"/>
</mask>
<g mask="url(#mask0_545_3265)">
<path d="M57.8906 8.53125C57.1922 8.07943 56.3935 7.80608 55.5647 7.73525C54.7359 7.66441 53.9024 7.79825 53.1375 8.125L28.0719 17.9969C27.4784 18.2384 26.8438 18.3626 26.2031 18.3625H10.1562C8.80945 18.3625 7.51781 18.8975 6.56547 19.8498C5.61314 20.8022 5.07812 22.0938 5.07812 23.4406V23.8469H0V36.0344H5.07812V36.5625C5.10995 37.8881 5.65898 39.1486 6.60788 40.0747C7.55679 41.0009 8.8303 41.5191 10.1562 41.5188L16.25 54.4375C16.6626 55.3075 17.3123 56.0434 18.1243 56.5608C18.9363 57.0782 19.8778 57.3561 20.8406 57.3625H23.4C24.7398 57.3518 26.021 56.812 26.9645 55.8609C27.9081 54.9097 28.4375 53.6242 28.4375 52.2844V42.0063L53.1375 51.8781C53.745 52.1199 54.393 52.244 55.0469 52.2438C56.0613 52.2274 57.0492 51.9169 57.8906 51.35C58.5588 50.8988 59.11 50.2951 59.4985 49.5886C59.8871 48.8822 60.1018 48.0934 60.125 47.2875V12.7156C60.1213 11.889 59.9158 11.0757 59.5264 10.3465C59.137 9.6173 58.5755 8.99417 57.8906 8.53125ZM23.3594 23.4406V36.5625H10.1562V23.4406H23.3594ZM23.3594 52.2844H20.8L15.8031 41.5188H23.3594V52.2844ZM29.9406 37.1719C29.4583 36.9254 28.9553 36.7215 28.4375 36.5625V23.1562C28.9504 23.0504 29.4532 22.9009 29.9406 22.7094L55.0469 12.7156V47.1656L29.9406 37.1719ZM60.2469 24.8625V35.0187C61.5937 35.0187 62.8853 34.4837 63.8377 33.5314C64.79 32.5791 65.325 31.2874 65.325 29.9406C65.325 28.5938 64.79 27.3022 63.8377 26.3498C62.8853 25.3975 61.5937 24.8625 60.2469 24.8625Z" fill="#2CBD2F"/>
</g>
</g>
<defs>
<clipPath id="clip0_545_3265">
<rect width="65" height="65" fill="white"/>
</clipPath>
</defs>
</svg>
