<svg width="41" height="41" viewBox="0 0 41 41" fill="none" xmlns="http://www.w3.org/2000/svg">
<g id="lucide:phone-call">
<rect x="0.5" y="0.5" width="40" height="40" rx="5.5" fill="white"/>
<rect x="0.5" y="0.5" width="40" height="40" rx="5.5" stroke="black"/>
<path id="Vector" d="M22.2892 9.00011C24.3874 9.24259 26.3474 10.2633 27.8448 11.8933C29.3423 13.5234 30.2877 15.6653 30.5245 17.9646M22.2892 13.5162C23.3017 13.7352 24.2307 14.2829 24.9558 15.0882C25.6809 15.8935 26.1685 16.9193 26.3554 18.0324M30.4731 25.8453V29.2324C30.4742 29.5468 30.4155 29.858 30.3006 30.1461C30.1858 30.4343 30.0173 30.6929 29.8061 30.9054C29.5948 31.118 29.3454 31.2798 29.0738 31.3806C28.8022 31.4813 28.5145 31.5187 28.2289 31.4904C25.0613 31.1129 22.0185 29.9258 19.3451 28.0243C16.8579 26.2909 14.7491 23.978 13.1686 21.2501C11.4289 18.3047 10.3463 14.9512 10.0084 11.4614C9.98263 11.1492 10.0165 10.8345 10.1077 10.5374C10.1989 10.2403 10.3456 9.96734 10.5383 9.73581C10.731 9.50428 10.9655 9.3193 11.227 9.19263C11.4884 9.06597 11.7711 9.0004 12.0569 9.00011H15.1451C15.6447 8.99472 16.129 9.18875 16.5078 9.54603C16.8866 9.90332 17.134 10.3995 17.2039 10.942C17.3343 12.026 17.576 13.0903 17.9245 14.1146C18.063 14.5187 18.093 14.9579 18.0109 15.3801C17.9288 15.8024 17.7381 16.1899 17.4613 16.4969L16.1539 17.9308C17.6194 20.7573 19.7532 23.0977 22.3304 24.7049L23.6378 23.2711C23.9177 22.9675 24.271 22.7583 24.656 22.6683C25.0409 22.5782 25.4414 22.6111 25.8098 22.763C26.7438 23.1452 27.7142 23.4104 28.7025 23.5533C29.2025 23.6307 29.6592 23.907 29.9857 24.3295C30.3121 24.7521 30.4856 25.2916 30.4731 25.8453Z" stroke="#414141" stroke-width="2" stroke-linecap="round" stroke-linejoin="round"/>
</g>
</svg>
