<svg width="103" height="100" viewBox="0 0 103 100" fill="none" xmlns="http://www.w3.org/2000/svg">
<g id="icomoon-free:quotes-right" opacity="0.3" clip-path="url(#clip0_55_3199)">
<path id="Vector" d="M23.0025 37.5C27.3959 37.5 31.6907 38.7829 35.3437 41.1866C38.9967 43.5902 41.8438 47.0067 43.5251 51.0038C45.2064 55.0009 45.6463 59.3993 44.7892 63.6426C43.9321 67.8859 41.8164 71.7837 38.7098 74.8429C35.6032 77.9022 31.6451 79.9856 27.3362 80.8297C23.0272 81.6737 18.5608 81.2405 14.5018 79.5849C10.4428 77.9292 6.97352 75.1254 4.53267 71.5281C2.09182 67.9308 0.789017 63.7015 0.789017 59.375L0.687469 56.25C0.687469 50.5047 1.83661 44.8156 4.06927 39.5076C6.30194 34.1996 9.57441 29.3766 13.6998 25.3141C17.8253 21.2515 22.7229 18.0289 28.113 15.8303C33.5031 13.6316 39.2802 12.5 45.1145 12.5V25C40.9453 24.9889 36.8153 25.7919 32.9633 27.3625C29.1112 28.933 25.6135 31.24 22.6725 34.15C21.5294 35.2735 20.4749 36.4812 19.5182 37.7625C20.6708 37.5841 21.8357 37.4943 23.0025 37.4937V37.5ZM80.1229 37.5C84.5163 37.5 88.8111 38.7829 92.4641 41.1866C96.1171 43.5902 98.9642 47.0067 100.646 51.0038C102.327 55.0009 102.767 59.3993 101.91 63.6426C101.052 67.8859 98.9368 71.7837 95.8302 74.8429C92.7236 77.9022 88.7656 79.9856 84.4566 80.8297C80.1476 81.6737 75.6812 81.2405 71.6222 79.5849C67.5632 77.9292 64.0939 75.1254 61.6531 71.5281C59.2122 67.9308 57.9094 63.7015 57.9094 59.375L57.8079 56.25C57.8079 44.6468 62.4886 33.5188 70.8202 25.3141C79.1519 17.1093 90.4521 12.5 102.235 12.5V25C98.0657 24.9889 93.9357 25.7919 90.0837 27.3625C86.2316 28.933 82.7339 31.24 79.7929 34.15C78.6498 35.2735 77.5953 36.4812 76.6386 37.7625C77.7912 37.5841 78.9562 37.4943 80.1229 37.4937V37.5Z" fill="#2CBD2F"/>
</g>
<defs>
<clipPath id="clip0_55_3199">
<rect width="101.547" height="100" fill="white" transform="matrix(-1 0 0 -1 102.336 100)"/>
</clipPath>
</defs>
</svg>
