<svg width="65" height="65" viewBox="0 0 65 65" fill="none" xmlns="http://www.w3.org/2000/svg">
<g id="ph:list-magnifying-glass">
<path id="Vector" d="M8.125 16.25C8.125 15.7113 8.33901 15.1946 8.71994 14.8137C9.10087 14.4328 9.61753 14.2187 10.1562 14.2188H54.8438C55.3825 14.2188 55.8991 14.4328 56.2801 14.8137C56.661 15.1946 56.875 15.7113 56.875 16.25C56.875 16.7887 56.661 17.3054 56.2801 17.6863C55.8991 18.0672 55.3825 18.2812 54.8438 18.2812H10.1562C9.61753 18.2812 9.10087 18.0672 8.71994 17.6863C8.33901 17.3054 8.125 16.7887 8.125 16.25ZM10.1562 34.5312H28.4375C28.9762 34.5312 29.4929 34.3172 29.8738 33.9363C30.2547 33.5554 30.4688 33.0387 30.4688 32.5C30.4688 31.9613 30.2547 31.4446 29.8738 31.0637C29.4929 30.6828 28.9762 30.4688 28.4375 30.4688H10.1562C9.61753 30.4688 9.10087 30.6828 8.71994 31.0637C8.33901 31.4446 8.125 31.9613 8.125 32.5C8.125 33.0387 8.33901 33.5554 8.71994 33.9363C9.10087 34.3172 9.61753 34.5312 10.1562 34.5312ZM32.5 46.7188H10.1562C9.61753 46.7188 9.10087 46.9328 8.71994 47.3137C8.33901 47.6946 8.125 48.2113 8.125 48.75C8.125 49.2887 8.33901 49.8054 8.71994 50.1863C9.10087 50.5672 9.61753 50.7812 10.1562 50.7812H32.5C33.0387 50.7812 33.5554 50.5672 33.9363 50.1863C34.3172 49.8054 34.5312 49.2887 34.5312 48.75C34.5312 48.2113 34.3172 47.6946 33.9363 47.3137C33.5554 46.9328 33.0387 46.7188 32.5 46.7188ZM60.3434 50.1871C60.1547 50.376 59.9307 50.5258 59.6841 50.628C59.4375 50.7302 59.1732 50.7828 58.9062 50.7828C58.6393 50.7828 58.375 50.7302 58.1284 50.628C57.8818 50.5258 57.6578 50.376 57.4691 50.1871L52.3047 45.0328C50.2045 46.4185 47.6646 46.9752 45.1774 46.5951C42.6901 46.215 40.4325 44.9251 38.8419 42.9755C37.2514 41.0258 36.4412 38.5551 36.5683 36.0422C36.6955 33.5293 37.7509 31.153 39.5301 29.3738C41.3092 27.5946 43.6855 26.5392 46.1985 26.4121C48.7114 26.285 51.182 27.0952 53.1317 28.6857C55.0814 30.2762 56.3712 32.5339 56.7513 35.0211C57.1314 37.5084 56.5747 40.0482 55.1891 42.1484L60.3434 47.3027C60.5337 47.4916 60.6849 47.7162 60.788 47.9637C60.8911 48.2113 60.9442 48.4768 60.9442 48.7449C60.9442 49.0131 60.8911 49.2786 60.788 49.5261C60.6849 49.7736 60.5337 49.9983 60.3434 50.1871ZM46.7188 42.6562C47.924 42.6562 49.1021 42.2989 50.1043 41.6293C51.1064 40.9597 51.8874 40.008 52.3486 38.8945C52.8099 37.781 52.9305 36.5557 52.6954 35.3737C52.4603 34.1916 51.8799 33.1058 51.0277 32.2536C50.1755 31.4013 49.0897 30.821 47.9076 30.5858C46.7255 30.3507 45.5003 30.4714 44.3868 30.9326C43.2733 31.3938 42.3216 32.1749 41.652 33.177C40.9824 34.1791 40.625 35.3573 40.625 36.5625C40.625 38.1787 41.267 39.7286 42.4098 40.8714C43.5526 42.0142 45.1026 42.6562 46.7188 42.6562Z" fill="#2CBD2F"/>
</g>
</svg>
