<svg width="67" height="57" viewBox="0 0 67 57" fill="none" xmlns="http://www.w3.org/2000/svg">
<path d="M8.22222 3C4.23872 3 1 5.88448 1 9.43229V38.3776C1 41.9254 4.23872 44.8099 8.22222 44.8099H28.0833L26.8759 48.026H19.0556C17.0582 48.026 15.4444 49.4633 15.4444 51.2422C15.4444 53.0211 17.0582 54.4583 19.0556 54.4583H47.9444C49.9418 54.4583 51.5556 53.0211 51.5556 51.2422C51.5556 49.4633 49.9418 48.026 47.9444 48.026H40.1241L38.9167 44.8099H58.7778C62.7613 44.8099 66 41.9254 66 38.3776V9.43229C66 5.88448 62.7613 3 58.7778 3H8.22222ZM58.7778 9.43229V38.3776H8.22222V9.43229H58.7778Z" fill="#2CBD2F"/>
</svg>
