<svg width="41" height="41" viewBox="0 0 41 41" fill="none" xmlns="http://www.w3.org/2000/svg">
<g id="lucide:phone-call">
<rect x="0.5" y="0.5" width="40" height="40" rx="5.5" fill="white"/>
<rect x="0.5" y="0.5" width="40" height="40" rx="5.5" stroke="black"/>
<path id="Vector" d="M31.5 26L26.5 31L23 27.5L24.5 26L26.5 28L30 24.5L31.5 26ZM21.1 28.9C20.7 29 20.4 29 20 29C15.6 29 12 25.4 12 21C12 16.6 15.6 13 20 13C24.4 13 28 16.6 28 21C28 21.4 28 21.7 27.9 22.1C28.6 22.2 29.2 22.4 29.8 22.7C29.9 22.1 30 21.6 30 21C30 15.5 25.5 11 20 11C14.5 11 10 15.5 10 21C10 26.5 14.5 31 20 31C20.6 31 21.2 30.9 21.7 30.8C21.4 30.3 21.2 29.6 21.1 28.9ZM23.6 23.1L20.5 21.3V16H19V22L22.5 24.1C22.8 23.7 23.2 23.4 23.6 23.1Z" fill="#414141"/>
</g>
</svg>
