<svg width="1441" height="546" viewBox="0 0 1441 546" fill="none" xmlns="http://www.w3.org/2000/svg">
<mask id="mask0_202_777" style="mask-type:luminance" maskUnits="userSpaceOnUse" x="0" y="0" width="1441" height="546">
<path d="M1441 0H0V546H1441V0Z" fill="white"/>
</mask>
<g mask="url(#mask0_202_777)">
<path d="M1441 0H0V546H1441V0Z" fill="#0E2A47"/>
<path d="M828.555 260.17C828.555 274.443 831.441 288.577 837.047 301.765C842.653 314.952 850.871 326.934 861.23 337.027C871.589 347.12 883.887 355.126 897.421 360.589C910.956 366.051 925.463 368.863 940.113 368.863C954.763 368.863 969.269 366.051 982.804 360.589C996.339 355.126 1008.64 347.12 1019 337.027C1029.35 326.934 1037.57 314.952 1043.18 301.765C1048.78 288.577 1051.67 274.443 1051.67 260.17C1051.67 245.896 1048.78 231.762 1043.18 218.575C1037.57 205.387 1029.35 193.405 1019 183.312C1008.64 173.219 996.339 165.213 982.804 159.75C969.269 154.288 954.763 151.477 940.113 151.477C925.463 151.477 910.956 154.288 897.421 159.75C883.887 165.213 871.589 173.219 861.23 183.312C850.871 193.405 842.653 205.387 837.047 218.575C831.441 231.762 828.555 245.896 828.555 260.17Z" fill="#1C538E" fill-opacity="0.4"/>
<path d="M81.4157 412.01L98.2145 327.807L-39.8184 345.357L81.4157 412.01Z" fill="#1C538E" fill-opacity="0.4"/>
<path d="M1490.39 48.674L1398.59 -70.0205L1276.77 19.4222L1368.57 138.117L1490.39 48.674Z" fill="#1C538E" fill-opacity="0.4"/>
<path d="M1146.08 424.779C1146.08 445.148 1150.19 465.319 1158.19 484.138C1166.19 502.957 1177.92 520.057 1192.7 534.46C1207.49 548.864 1225.04 560.289 1244.35 568.084C1263.67 575.879 1284.37 579.892 1305.28 579.892C1326.18 579.892 1346.88 575.879 1366.2 568.084C1385.51 560.289 1403.06 548.864 1417.85 534.46C1432.63 520.057 1444.36 502.957 1452.36 484.138C1460.36 465.319 1464.48 445.148 1464.48 424.779C1464.48 404.409 1460.36 384.239 1452.36 365.42C1444.36 346.601 1432.63 329.501 1417.85 315.098C1403.06 300.694 1385.51 289.268 1366.2 281.473C1346.88 273.678 1326.18 269.666 1305.28 269.666C1284.37 269.666 1263.67 273.678 1244.35 281.473C1225.04 289.268 1207.49 300.694 1192.7 315.098C1177.92 329.501 1166.19 346.601 1158.19 365.42C1150.19 384.239 1146.08 404.409 1146.08 424.779Z" fill="#1C538E" fill-opacity="0.4"/>
<path d="M1207 157.879L1180.59 261.077L1286.51 286.808L1312.92 183.609L1207 157.879Z" fill="#1C538E" fill-opacity="0.4"/>
<path d="M739.391 176.661C769.902 175.893 796.085 156.364 810.099 129.947C823.019 105.591 818.481 77.3347 804.791 53.3829C790.65 28.6432 768.454 6.07395 739.391 6.24165C710.542 6.4074 690.001 29.9312 675.318 54.1278C660.278 78.9103 648.645 108.019 662.06 133.672C676.5 161.286 707.594 177.461 739.391 176.661Z" fill="#1C538E" fill-opacity="0.4"/>
<path d="M457.007 116.473C457.007 145.267 468.747 172.881 489.644 193.241C510.54 213.602 538.882 225.04 568.435 225.04C597.987 225.04 626.329 213.602 647.226 193.241C668.122 172.881 679.862 145.267 679.862 116.473C679.862 87.6799 668.122 60.0657 647.226 39.7055C626.329 19.3454 597.987 7.90723 568.435 7.90723C538.882 7.90723 510.54 19.3454 489.644 39.7055C468.747 60.0657 457.007 87.6799 457.007 116.473Z" fill="#1C538E" fill-opacity="0.4"/>
</g>
</svg>
